<?xml version="1.0" encoding="UTF-8" standalone="no"?><svg xmlns="http://www.w3.org/2000/svg" xmlns:xlink="http://www.w3.org/1999/xlink" fill="#000000" height="638.3" preserveAspectRatio="xMidYMid meet" version="1" viewBox="312.2 680.3 1374.1 638.3" width="1374.1" zoomAndPan="magnify"><g><g id="change1_1"><path d="M 1099.261719 744.339844 C 1116.609375 743.109375 1129.671875 728.050781 1128.441406 710.710938 C 1127.210938 693.359375 1112.160156 680.289062 1094.808594 681.519531 C 1077.460938 682.75 1064.398438 697.808594 1065.628906 715.160156 C 1066.859375 732.5 1081.910156 745.570312 1099.261719 744.339844" fill="#ef620c"/></g><g id="change1_2"><path d="M 893.253906 746.730469 C 903.894531 745.96875 911.910156 736.738281 911.15625 726.101562 C 910.402344 715.460938 901.164062 707.441406 890.527344 708.199219 C 879.886719 708.949219 871.871094 718.191406 872.625 728.828125 C 873.378906 739.46875 882.617188 747.480469 893.253906 746.730469" fill="#ef620c"/></g><g id="change1_3"><path d="M 697.394531 783.910156 C 710.199219 783 719.847656 771.878906 718.941406 759.070312 C 718.035156 746.269531 706.914062 736.621094 694.109375 737.53125 C 681.300781 738.429688 671.652344 749.550781 672.558594 762.359375 C 673.46875 775.171875 684.585938 784.808594 697.394531 783.910156" fill="#ef620c"/></g><g id="change1_4"><path d="M 1476.609375 942.449219 C 1487.25 941.699219 1495.261719 932.460938 1494.511719 921.820312 C 1493.75 911.179688 1484.519531 903.171875 1473.878906 903.921875 C 1463.238281 904.671875 1455.21875 913.910156 1455.980469 924.550781 C 1456.730469 935.191406 1465.96875 943.199219 1476.609375 942.449219" fill="#ef620c"/></g><g id="change1_5"><path d="M 506.320312 888.71875 C 523.667969 887.488281 536.730469 872.429688 535.503906 855.089844 C 534.273438 837.738281 519.21875 824.679688 501.871094 825.898438 C 484.523438 827.128906 471.460938 842.191406 472.6875 859.539062 C 473.917969 876.878906 488.976562 889.949219 506.320312 888.71875" fill="#ef620c"/></g><g id="change1_6"><path d="M 1334.628906 884.089844 C 1347.441406 883.179688 1357.089844 872.058594 1356.179688 859.25 C 1355.269531 846.441406 1344.160156 836.800781 1331.351562 837.710938 C 1318.539062 838.609375 1308.890625 849.730469 1309.800781 862.539062 C 1310.710938 875.351562 1321.828125 884.988281 1334.628906 884.089844" fill="#ef620c"/></g><g id="change1_7"><path d="M 1659.859375 1127.691406 C 1663.050781 1121.691406 1664.859375 1114.839844 1664.859375 1107.570312 C 1664.859375 1083.820312 1645.609375 1064.570312 1621.859375 1064.570312 C 1621.851562 1064.570312 1621.828125 1064.570312 1621.808594 1064.570312 C 1621.878906 1062.871094 1621.871094 1061.160156 1621.738281 1059.429688 C 1620 1034.839844 1599.28125 1016.121094 1574.910156 1016.589844 C 1572.53125 1023.628906 1568.550781 1030.25 1562.941406 1035.871094 C 1561.800781 1037.011719 1560.628906 1038.070312 1559.421875 1039.070312 C 1564.691406 1032.691406 1568.128906 1025.308594 1569.75 1017.621094 C 1572.859375 1002.871094 1568.550781 987.480469 1558.679688 976.078125 C 1547.769531 963.46875 1531.269531 955.988281 1513.359375 957.25 C 1497.511719 958.378906 1483.738281 966.160156 1474.519531 977.648438 C 1476.480469 984.289062 1477.101562 991.441406 1476.078125 998.75 C 1475.859375 1000.328125 1475.550781 1001.890625 1475.191406 1003.421875 C 1475.199219 1003.28125 1475.199219 1003.140625 1475.210938 1003 C 1476.148438 977.488281 1455.269531 956.011719 1429.75 956.679688 C 1429.171875 956.691406 1428.589844 956.71875 1428 956.761719 C 1425.050781 962.679688 1420.859375 968.109375 1415.46875 972.640625 C 1414.25 973.679688 1412.980469 974.628906 1411.691406 975.53125 C 1412.921875 974.269531 1414.078125 972.96875 1415.160156 971.609375 C 1434.050781 947.890625 1426.5 912.339844 1398.640625 900.339844 C 1392.101562 897.519531 1384.800781 896.179688 1377.191406 896.71875 C 1364.261719 897.640625 1352.96875 903.820312 1345.230469 913 C 1348.449219 918.179688 1350.78125 924.039062 1351.941406 930.410156 C 1352.21875 931.980469 1352.429688 933.558594 1352.558594 935.121094 C 1352.410156 934.578125 1352.25 934.050781 1352.078125 933.519531 C 1347.871094 920.261719 1337.429688 909.890625 1324.351562 905.148438 C 1317.390625 902.628906 1309.800781 901.5 1301.929688 902.050781 C 1300.449219 902.160156 1298.988281 902.328125 1297.550781 902.550781 C 1298.269531 910.328125 1297.179688 918.378906 1294.011719 926.101562 C 1293.398438 927.589844 1292.730469 929.019531 1292 930.410156 C 1296.121094 916.878906 1294.179688 902.71875 1287.550781 891.089844 C 1278.929688 876.558594 1262.628906 867.320312 1244.640625 868.589844 C 1239.789062 868.941406 1235.171875 870.019531 1230.878906 871.730469 C 1230.859375 871.011719 1230.828125 870.300781 1230.78125 869.578125 C 1230.160156 860.78125 1227.101562 852.738281 1222.320312 846.058594 C 1218.289062 849.949219 1213.539062 853.21875 1208.140625 855.648438 C 1206.671875 856.308594 1205.199219 856.878906 1203.710938 857.390625 C 1204.769531 856.789062 1205.808594 856.148438 1206.808594 855.46875 C 1221 845.980469 1228.96875 829.488281 1226.640625 812.578125 C 1226.609375 812.398438 1226.578125 812.21875 1226.558594 812.03125 C 1223.160156 789.421875 1203.261719 772.539062 1180.390625 772.859375 C 1168.199219 773.03125 1157.308594 777.871094 1149.230469 785.558594 C 1156.460938 792.609375 1161.640625 801.910156 1163.53125 812.609375 C 1163.808594 814.191406 1164.011719 815.761719 1164.128906 817.328125 C 1159.628906 801 1147.300781 788.539062 1132.03125 783.339844 C 1125.96875 781.558594 1119.488281 780.820312 1112.820312 781.289062 C 1101.511719 782.089844 1091.25 786.28125 1082.949219 792.789062 C 1084.339844 797.179688 1085.148438 801.839844 1085.261719 806.679688 C 1085.300781 808.289062 1085.25 809.871094 1085.140625 811.441406 C 1085.109375 811.171875 1085.070312 810.910156 1085.039062 810.640625 C 1081.960938 787.699219 1062.148438 770.28125 1039.011719 771.039062 C 1038.421875 771.058594 1037.828125 771.078125 1037.230469 771.128906 C 1032.171875 771.488281 1027.371094 772.660156 1022.921875 774.488281 C 1023.390625 780.808594 1022.671875 787.320312 1020.589844 793.710938 C 1020.089844 795.230469 1019.519531 796.710938 1018.898438 798.148438 C 1021.769531 785.359375 1019.421875 772.410156 1013.101562 761.730469 C 1002.589844 745.601562 983.886719 735.5 963.316406 736.949219 C 945.050781 738.25 929.53125 748.359375 920.582031 762.820312 C 922.429688 767.949219 923.480469 773.46875 923.542969 779.230469 C 923.5625 780.828125 923.496094 782.410156 923.367188 783.980469 C 922.597656 776.699219 920.261719 769.890625 916.71875 763.890625 C 911.527344 762.339844 905.976562 761.660156 900.25 762.070312 C 892.613281 762.609375 885.546875 764.988281 879.441406 768.730469 C 881.640625 774.269531 882.894531 780.289062 882.964844 786.609375 C 882.980469 788.210938 882.917969 789.800781 882.785156 791.359375 C 882.726562 790.800781 882.65625 790.230469 882.578125 789.671875 C 880.636719 775.851562 872.164062 763.859375 860.253906 756.601562 C 848.839844 749.628906 835.234375 746.019531 820.882812 747.039062 C 794.378906 748.921875 772.609375 766.050781 763.503906 789.238281 C 768.847656 791.691406 773.847656 795.121094 778.222656 799.550781 C 779.347656 800.691406 780.402344 801.878906 781.394531 803.089844 C 772.847656 795.929688 762.460938 792.058594 751.925781 791.511719 C 750.507812 791.5 749.078125 791.539062 747.640625 791.640625 C 724.925781 793.25 706.4375 808.480469 699.585938 828.789062 C 695.96875 828.160156 692.222656 827.949219 688.394531 828.21875 C 685.070312 828.449219 681.863281 829.050781 678.789062 829.941406 C 681.355469 836.980469 682.386719 844.699219 681.488281 852.648438 C 681.308594 854.238281 681.046875 855.800781 680.726562 857.339844 C 680.734375 856.761719 680.738281 856.171875 680.726562 855.589844 C 680.40625 836.269531 668.160156 818.941406 650.128906 812 C 643.441406 809.429688 636.097656 808.25 628.480469 808.789062 C 600.65625 810.761719 579.703125 834.910156 581.671875 862.730469 C 581.800781 864.53125 582.046875 866.300781 582.355469 868.039062 C 597.015625 868.28125 611.4375 874.910156 621.113281 887.398438 C 622.09375 888.671875 622.996094 889.96875 623.839844 891.300781 C 609.238281 875.71875 586.496094 871.359375 567.410156 879.710938 C 557.476562 884.671875 550 893.640625 546.933594 904.359375 C 554.394531 907.601562 561.167969 912.710938 566.5 919.589844 C 567.480469 920.859375 568.386719 922.160156 569.226562 923.488281 C 568.816406 923.050781 568.398438 922.621094 567.972656 922.199219 C 551.984375 906.320312 527.160156 904.050781 507.683594 915.371094 C 496.488281 921.878906 487.421875 931.53125 481.605469 943.039062 C 491.839844 951.238281 498.855469 963.429688 500.132812 977.519531 C 500.277344 979.121094 500.335938 980.710938 500.328125 982.28125 C 499.617188 978.441406 498.46875 974.78125 496.949219 971.328125 C 489.339844 954.058594 472.128906 943.25 453.28125 942.269531 C 450.800781 942.140625 448.285156 942.171875 445.746094 942.351562 C 417.300781 944.359375 394.800781 965.5 389.863281 992.308594 C 401.628906 992.980469 413.203125 997.769531 422.226562 1006.730469 C 423.363281 1007.859375 424.425781 1009.03125 425.433594 1010.238281 C 414.941406 1001.621094 401.773438 997.921875 388.988281 999.128906 C 388.984375 999.171875 388.980469 999.199219 388.980469 999.230469 C 363.804688 1001.878906 345.078125 1024.03125 346.878906 1049.480469 C 347.464844 1057.71875 350.136719 1065.320312 354.339844 1071.789062 C 353.125 1071.769531 351.898438 1071.789062 350.660156 1071.878906 C 328.742188 1073.429688 312.230469 1092.460938 313.78125 1114.378906 C 314.339844 1122.261719 317.167969 1129.429688 321.5625 1135.320312 C 319.144531 1140.261719 317.78125 1145.820312 317.78125 1151.691406 C 317.78125 1169.648438 330.460938 1184.628906 347.351562 1188.199219 C 348.070312 1209.300781 365.394531 1226.191406 386.671875 1226.191406 C 390.304688 1226.191406 393.816406 1225.691406 397.15625 1224.769531 C 386.101562 1207.160156 372.472656 1182.699219 365.417969 1159.53125 C 326.722656 1032.378906 479.335938 1002.640625 479.335938 1002.640625 C 890.179688 724.371094 1261.808594 1002.660156 1261.808594 1002.660156 C 1618.5 1000.800781 1611.03125 1131.519531 1611.03125 1131.519531 C 1563.511719 1184.800781 1589.28125 1244.730469 1603.570312 1269.378906 C 1622.519531 1262.160156 1635.980469 1243.828125 1635.980469 1222.339844 C 1663.78125 1222.339844 1686.320312 1199.808594 1686.320312 1172.011719 C 1686.320312 1152.851562 1675.609375 1136.199219 1659.859375 1127.691406" fill="#ef620c"/></g><g id="change2_1"><path d="M 1395.019531 1142.101562 C 1395.019531 1142.101562 1289.199219 1055.140625 1169.679688 1087.410156 C 1169.679688 1087.410156 1210.769531 1167 1395.019531 1142.101562" fill="#011532"/></g><g id="change2_2"><path d="M 1066.660156 929.828125 C 979.683594 909.261719 864.660156 919.359375 838.515625 922.359375 C 838.515625 922.359375 881.3125 958.308594 900.546875 983.988281 C 914.105469 1002.078125 934.929688 1013.128906 957.21875 1009.320312 C 1093.789062 985.929688 1239.398438 1006.398438 1239.398438 1006.398438 C 1239.398438 1006.398438 1153.5 950.371094 1066.660156 929.828125" fill="#011532"/></g><g id="change2_3"><path d="M 748.171875 914.101562 C 666.9375 919.710938 527.808594 996.128906 527.808594 996.128906 C 527.808594 996.128906 669.738281 1029.890625 902.238281 1020.550781 C 902.238281 1020.550781 829.40625 908.5 748.171875 914.101562" fill="#011532"/></g><g id="change1_8"><path d="M 366.265625 968.089844 C 376.90625 967.339844 384.917969 958.101562 384.164062 947.460938 C 383.410156 936.820312 374.175781 928.808594 363.535156 929.558594 C 352.894531 930.320312 344.882812 939.550781 345.636719 950.191406 C 346.390625 960.828125 355.625 968.851562 366.265625 968.089844" fill="#ef620c"/></g><g id="change2_4"><path d="M 1312.539062 1210.25 C 1278.96875 1202.640625 1247.308594 1230.78125 1251.949219 1264.890625 C 1252.058594 1265.738281 1252.199219 1266.589844 1252.351562 1267.449219 C 1252.351562 1267.449219 1522.011719 1253.53125 1535.710938 1253.53125 C 1536.019531 1253.53125 1563.71875 1251.039062 1571.71875 1222.609375 C 1571.71875 1222.609375 1440.269531 1239.230469 1312.539062 1210.25" fill="#011532"/></g><g id="change2_5"><path d="M 1477.988281 1119.339844 C 1461.621094 1116.371094 1444.699219 1120.210938 1431.289062 1130.058594 C 1427.648438 1132.730469 1423.71875 1135.710938 1419.601562 1138.988281 C 1419.601562 1138.988281 1438.28125 1158.519531 1454.679688 1163.691406 C 1455.898438 1164.070312 1457.171875 1164.261719 1458.441406 1164.351562 C 1471.011719 1165.230469 1541.148438 1169.21875 1570.570312 1150.820312 C 1570.570312 1150.820312 1583.019531 1136.648438 1575.550781 1120.941406 C 1575.550781 1120.941406 1547.070312 1131.828125 1477.988281 1119.339844" fill="#011532"/></g><g id="change2_6"><path d="M 702.96875 1246.078125 C 685.289062 1243.878906 672.1875 1228.679688 672.484375 1210.871094 C 672.492188 1210.5 672.496094 1210.128906 672.496094 1209.761719 C 672.90625 1150.230469 624.964844 1100.789062 565.445312 1099.460938 C 513.699219 1098.308594 469.878906 1133.050781 457.132812 1180.511719 C 465.824219 1161.71875 480.597656 1146.320312 498.933594 1136.828125 C 495.964844 1139 493.128906 1141.339844 490.457031 1143.851562 L 521.800781 1171.539062 C 530.992188 1179.660156 545.5 1173.648438 546.257812 1161.410156 L 548.402344 1126.738281 C 550.597656 1126.898438 552.773438 1127.140625 554.925781 1127.449219 L 557.027344 1161.410156 C 557.785156 1173.648438 572.292969 1179.660156 581.484375 1171.539062 L 604.53125 1151.179688 C 606.242188 1152.75 607.894531 1154.390625 609.480469 1156.078125 L 589.097656 1179.160156 C 580.980469 1188.351562 586.988281 1202.851562 599.230469 1203.609375 L 633.605469 1205.738281 C 633.925781 1207.871094 634.171875 1210.03125 634.339844 1212.210938 L 599.230469 1214.378906 C 586.988281 1215.140625 580.980469 1229.648438 589.097656 1238.839844 L 616.789062 1270.179688 C 620.242188 1266.5 623.378906 1262.53125 626.175781 1258.308594 C 611.472656 1290.308594 579.136719 1312.539062 541.605469 1312.539062 C 534.550781 1312.539062 527.683594 1311.75 521.078125 1310.269531 C 533.976562 1315.601562 548.113281 1318.558594 562.941406 1318.558594 C 600.476562 1318.558594 633.601562 1299.671875 653.34375 1270.898438 L 902.238281 1270.898438 L 702.96875 1246.078125" fill="#011532"/></g><g id="change2_7"><path d="M 514.183594 1179.160156 L 486.496094 1147.808594 C 472.066406 1163.171875 463.007812 1183.628906 462.3125 1206.199219 L 504.054688 1203.609375 C 516.292969 1202.851562 522.304688 1188.351562 514.183594 1179.160156" fill="#011532"/></g><g id="change2_8"><path d="M 504.054688 1214.378906 L 462.3125 1211.800781 C 463.007812 1234.359375 472.066406 1254.820312 486.496094 1270.179688 L 514.183594 1238.839844 C 522.304688 1229.648438 516.292969 1215.140625 504.054688 1214.378906" fill="#011532"/></g><g id="change2_9"><path d="M 557.027344 1256.578125 L 554.441406 1298.328125 C 577.011719 1297.628906 597.46875 1288.570312 612.824219 1274.140625 L 581.484375 1246.449219 C 572.292969 1238.328125 557.785156 1244.339844 557.027344 1256.578125" fill="#011532"/></g><g id="change2_10"><path d="M 546.257812 1256.578125 C 545.5 1244.339844 530.992188 1238.328125 521.800781 1246.449219 L 490.457031 1274.140625 C 505.816406 1288.570312 526.273438 1297.628906 548.839844 1298.328125 L 546.257812 1256.578125" fill="#011532"/></g><g id="change2_11"><path d="M 551.640625 1223.308594 C 543.734375 1223.308594 537.324219 1216.898438 537.324219 1209 C 537.324219 1201.089844 543.734375 1194.679688 551.640625 1194.679688 C 559.550781 1194.679688 565.960938 1201.089844 565.960938 1209 C 565.960938 1216.898438 559.550781 1223.308594 551.640625 1223.308594 Z M 551.640625 1179.769531 C 535.503906 1179.769531 522.417969 1192.859375 522.417969 1209 C 522.417969 1225.140625 535.503906 1238.21875 551.640625 1238.21875 C 567.78125 1238.21875 580.863281 1225.140625 580.863281 1209 C 580.863281 1192.859375 567.78125 1179.769531 551.640625 1179.769531" fill="#011532"/></g><g id="change2_12"><path d="M 1017.101562 1099.441406 C 966.441406 1099.441406 923.828125 1133.808594 911.285156 1180.511719 C 920.589844 1160.390625 936.867188 1144.171875 957.011719 1134.921875 C 953.046875 1137.609375 949.292969 1140.578125 945.816406 1143.851562 L 977.160156 1171.539062 C 986.347656 1179.660156 1000.859375 1173.648438 1001.609375 1161.410156 L 1003.761719 1126.828125 C 1005.960938 1127.019531 1008.140625 1127.28125 1010.289062 1127.621094 L 1012.390625 1161.410156 C 1013.140625 1173.648438 1027.648438 1179.660156 1036.839844 1171.539062 L 1059.371094 1151.640625 C 1061.089844 1153.25 1062.738281 1154.921875 1064.328125 1156.660156 L 1044.460938 1179.160156 C 1036.339844 1188.351562 1042.351562 1202.851562 1054.589844 1203.609375 L 1087.761719 1205.660156 C 1088.089844 1207.851562 1088.339844 1210.050781 1088.511719 1212.28125 L 1054.589844 1214.378906 C 1042.351562 1215.140625 1036.339844 1229.648438 1044.460938 1238.839844 L 1072.148438 1270.179688 C 1074.058594 1268.140625 1075.871094 1266.011719 1077.589844 1263.800781 C 1061.839844 1292.828125 1031.101562 1312.539062 995.757812 1312.539062 C 988.703125 1312.539062 981.835938 1311.75 975.230469 1310.269531 C 988.128906 1315.601562 1002.269531 1318.558594 1017.101562 1318.558594 C 1077.601562 1318.558594 1126.648438 1269.5 1126.648438 1209 C 1126.648438 1148.488281 1077.601562 1099.441406 1017.101562 1099.441406" fill="#011532"/></g><g id="change2_13"><path d="M 969.542969 1179.160156 L 941.855469 1147.808594 C 927.425781 1163.171875 918.363281 1183.628906 917.671875 1206.199219 L 959.414062 1203.609375 C 971.652344 1202.851562 977.660156 1188.351562 969.542969 1179.160156" fill="#011532"/></g><g id="change2_14"><path d="M 959.414062 1214.378906 L 917.671875 1211.800781 C 918.363281 1234.359375 927.425781 1254.820312 941.855469 1270.179688 L 969.542969 1238.839844 C 977.660156 1229.648438 971.652344 1215.140625 959.414062 1214.378906" fill="#011532"/></g><g id="change2_15"><path d="M 1012.390625 1256.578125 L 1009.800781 1298.328125 C 1032.371094 1297.628906 1052.828125 1288.570312 1068.179688 1274.140625 L 1036.839844 1246.449219 C 1027.648438 1238.328125 1013.140625 1244.339844 1012.390625 1256.578125" fill="#011532"/></g><g id="change2_16"><path d="M 1001.609375 1256.578125 C 1000.859375 1244.339844 986.347656 1238.328125 977.160156 1246.449219 L 945.816406 1274.140625 C 961.171875 1288.570312 981.632812 1297.628906 1004.199219 1298.328125 L 1001.609375 1256.578125" fill="#011532"/></g><g id="change2_17"><path d="M 1007 1223.308594 C 999.09375 1223.308594 992.679688 1216.898438 992.679688 1209 C 992.679688 1201.089844 999.09375 1194.679688 1007 1194.679688 C 1014.910156 1194.679688 1021.320312 1201.089844 1021.320312 1209 C 1021.320312 1216.898438 1014.910156 1223.308594 1007 1223.308594 Z M 1007 1179.769531 C 990.859375 1179.769531 977.777344 1192.859375 977.777344 1209 C 977.777344 1225.140625 990.859375 1238.21875 1007 1238.21875 C 1023.140625 1238.21875 1036.21875 1225.140625 1036.21875 1209 C 1036.21875 1192.859375 1023.140625 1179.769531 1007 1179.769531" fill="#011532"/></g></g></svg>