<?xml version="1.0" encoding="UTF-8" standalone="no"?><svg xmlns="http://www.w3.org/2000/svg" xmlns:xlink="http://www.w3.org/1999/xlink" data-name="Layer 1" fill="#000000" height="1783.4" preserveAspectRatio="xMidYMid meet" version="1" viewBox="86.6 135.9 1789.5 1783.4" width="1789.5" zoomAndPan="magnify"><g id="change1_1"><path d="M86.58 135.94H131.85V181.21H86.58z" fill="#fafafa"/></g><g id="change1_2"><path d="M86.58 425.63H131.85V470.9H86.58z" fill="#fafafa"/></g><g id="change1_3"><path d="M86.58 715.32H131.85V760.59H86.58z" fill="#fafafa"/></g><g id="change1_4"><path d="M86.58 1005.02H131.85V1050.29H86.58z" fill="#fafafa"/></g><g id="change1_5"><path d="M86.58 1294.71H131.85V1339.98H86.58z" fill="#fafafa"/></g><g id="change1_6"><path d="M86.58 1584.4H131.85V1629.67H86.58z" fill="#fafafa"/></g><g id="change1_7"><path d="M86.58 1874.1H131.85V1919.37H86.58z" fill="#fafafa"/></g><g id="change1_8"><path d="M377.28 135.94H422.54999999999995V181.21H377.28z" fill="#fafafa"/></g><g id="change1_9"><path d="M377.28 425.63H422.54999999999995V470.9H377.28z" fill="#fafafa"/></g><g id="change1_10"><path d="M377.28 715.32H422.54999999999995V760.59H377.28z" fill="#fafafa"/></g><g id="change1_11"><path d="M377.28 1005.02H422.54999999999995V1050.29H377.28z" fill="#fafafa"/></g><g id="change1_12"><path d="M377.28 1294.71H422.54999999999995V1339.98H377.28z" fill="#fafafa"/></g><g id="change1_13"><path d="M377.28 1584.4H422.54999999999995V1629.67H377.28z" fill="#fafafa"/></g><g id="change1_14"><path d="M377.28 1874.1H422.54999999999995V1919.37H377.28z" fill="#fafafa"/></g><g id="change1_15"><path d="M667.99 135.94H713.26V181.21H667.99z" fill="#fafafa"/></g><g id="change1_16"><path d="M667.99 425.63H713.26V470.9H667.99z" fill="#fafafa"/></g><g id="change1_17"><path d="M667.99 715.32H713.26V760.59H667.99z" fill="#fafafa"/></g><g id="change1_18"><path d="M667.99 1005.02H713.26V1050.29H667.99z" fill="#fafafa"/></g><g id="change1_19"><path d="M667.99 1294.71H713.26V1339.98H667.99z" fill="#fafafa"/></g><g id="change1_20"><path d="M667.99 1584.4H713.26V1629.67H667.99z" fill="#fafafa"/></g><g id="change1_21"><path d="M667.99 1874.1H713.26V1919.37H667.99z" fill="#fafafa"/></g><g id="change1_22"><path d="M958.7 135.94H1003.97V181.21H958.7z" fill="#fafafa"/></g><g id="change1_23"><path d="M958.7 425.63H1003.97V470.9H958.7z" fill="#fafafa"/></g><g id="change1_24"><path d="M958.7 715.32H1003.97V760.59H958.7z" fill="#fafafa"/></g><g id="change1_25"><path d="M958.7 1005.02H1003.97V1050.29H958.7z" fill="#fafafa"/></g><g id="change1_26"><path d="M958.7 1294.71H1003.97V1339.98H958.7z" fill="#fafafa"/></g><g id="change1_27"><path d="M958.7 1584.4H1003.97V1629.67H958.7z" fill="#fafafa"/></g><g id="change1_28"><path d="M958.7 1874.1H1003.97V1919.37H958.7z" fill="#fafafa"/></g><g id="change1_29"><path d="M1249.4 135.94H1294.67V181.21H1249.4z" fill="#fafafa"/></g><g id="change1_30"><path d="M1249.4 425.63H1294.67V470.9H1249.4z" fill="#fafafa"/></g><g id="change1_31"><path d="M1249.4 715.32H1294.67V760.59H1249.4z" fill="#fafafa"/></g><g id="change1_32"><path d="M1249.4 1005.02H1294.67V1050.29H1249.4z" fill="#fafafa"/></g><g id="change1_33"><path d="M1249.4 1294.71H1294.67V1339.98H1249.4z" fill="#fafafa"/></g><g id="change1_34"><path d="M1249.4 1584.4H1294.67V1629.67H1249.4z" fill="#fafafa"/></g><g id="change1_35"><path d="M1249.4 1874.1H1294.67V1919.37H1249.4z" fill="#fafafa"/></g><g id="change1_36"><path d="M1540.11 135.94H1585.3799999999999V181.21H1540.11z" fill="#fafafa"/></g><g id="change1_37"><path d="M1540.11 425.63H1585.3799999999999V470.9H1540.11z" fill="#fafafa"/></g><g id="change1_38"><path d="M1540.11 715.32H1585.3799999999999V760.59H1540.11z" fill="#fafafa"/></g><g id="change1_39"><path d="M1540.11 1005.02H1585.3799999999999V1050.29H1540.11z" fill="#fafafa"/></g><g id="change1_40"><path d="M1540.11 1294.71H1585.3799999999999V1339.98H1540.11z" fill="#fafafa"/></g><g id="change1_41"><path d="M1540.11 1584.4H1585.3799999999999V1629.67H1540.11z" fill="#fafafa"/></g><g id="change1_42"><path d="M1540.11 1874.1H1585.3799999999999V1919.37H1540.11z" fill="#fafafa"/></g><g id="change1_43"><path d="M1830.82 135.94H1876.09V181.21H1830.82z" fill="#fafafa"/></g><g id="change1_44"><path d="M1830.82 425.63H1876.09V470.9H1830.82z" fill="#fafafa"/></g><g id="change1_45"><path d="M1830.82 715.32H1876.09V760.59H1830.82z" fill="#fafafa"/></g><g id="change1_46"><path d="M1830.82 1005.02H1876.09V1050.29H1830.82z" fill="#fafafa"/></g><g id="change1_47"><path d="M1830.82 1294.71H1876.09V1339.98H1830.82z" fill="#fafafa"/></g><g id="change1_48"><path d="M1830.82 1584.4H1876.09V1629.67H1830.82z" fill="#fafafa"/></g><g id="change1_49"><path d="M1830.82 1874.1H1876.09V1919.37H1830.82z" fill="#fafafa"/></g></svg>