<?xml version="1.0" encoding="UTF-8" standalone="no"?><svg xmlns="http://www.w3.org/2000/svg" xmlns:xlink="http://www.w3.org/1999/xlink" clip-rule="evenodd" fill="#000000" fill-rule="evenodd" height="182" image-rendering="optimizeQuality" preserveAspectRatio="xMidYMid meet" shape-rendering="geometricPrecision" text-rendering="geometricPrecision" version="1" viewBox="0.0 0.0 642.0 182.0" width="642" zoomAndPan="magnify"><g id="change1_1"><path d="M50 0l45 0 -50 182 -45 0 50 -182zm547 0l45 0 -50 182 -45 0 50 -182zm-78 0l45 0 -50 182 -45 0 50 -182zm-78 0l45 0 -50 182 -45 0 50 -182zm-79 0l46 0 -50 182 -45 0 49 -182zm-78 0l45 0 -49 182 -46 0 50 -182zm-78 0l45 0 -50 182 -45 0 50 -182zm-78 0l45 0 -50 182 -45 0 50 -182z" fill="#fafafa"/></g></svg>